<svg width="400" height="300" viewBox="0 0 400 300" fill="none" xmlns="http://www.w3.org/2000/svg">
  <rect width="400" height="300" fill="white"/>
  <ellipse cx="200" cy="250" rx="180" ry="30" fill="#e0e7ff"/>
  <rect x="120" y="80" width="160" height="100" rx="20" fill="#6366f1"/>
  <circle cx="200" cy="130" r="40" fill="#fbbf24"/>
  <rect x="170" y="110" width="60" height="40" rx="10" fill="#fff"/>
  <rect x="185" y="120" width="30" height="20" rx="5" fill="#6366f1"/>
  <circle cx="170" cy="110" r="8" fill="#fff"/>
  <circle cx="230" cy="110" r="8" fill="#fff"/>
  <rect x="140" y="190" width="120" height="20" rx="8" fill="#a5b4fc"/>
  <rect x="160" y="215" width="80" height="10" rx="5" fill="#c7d2fe"/>
  <g>
    <rect x="60" y="40" width="60" height="40" rx="12" fill="#fbbf24"/>
    <rect x="280" y="40" width="60" height="40" rx="12" fill="#10b981"/>
    <rect x="60" y="220" width="60" height="40" rx="12" fill="#f472b6"/>
    <rect x="280" y="220" width="60" height="40" rx="12" fill="#60a5fa"/>
  </g>
</svg>
